PathFileType	4	(X/Y/Z)	C:/Users/opensim2020/Desktop/walking_exp_matlab/subject03_walking04_straight_01.trc	
DataRate	CameraRate	NumFrames	NumMarkers	Units	OrigDataRate	OrigDataStartFrame	OrigNumFrames	
100.00	100.00	5	51	mm	100.00	967	265	
Frame#	Time	LFHD			RFHD			LBHD			RBHD			C7			T10			CLAV			STRN			RBAK			LSHO			LUPA			LELB			LFRM			LWRA			LWRB			LFIN			RSHO			RUPA			RELB			RFRM			RWRA			RWRB			RFIN			LASI			RASI			LPSI			RPSI			LTHI			LKNE			LTIB			LANK			LHEE			LTOE			RTHI			RKNE			RTIB			RANK			RHEE			RTOE			*39			*40			*41			*42			*43			*44			*45			*46			*47			*48			*49			*50			
		X1	Y1	Z1	X2	Y2	Z2	X3	Y3	Z3	X4	Y4	Z4	X5	Y5	Z5	X6	Y6	Z6	X7	Y7	Z7	X8	Y8	Z8	X9	Y9	Z9	X10	Y10	Z10	X11	Y11	Z11	X12	Y12	Z12	X13	Y13	Z13	X14	Y14	Z14	X15	Y15	Z15	X16	Y16	Z16	X17	Y17	Z17	X18	Y18	Z18	X19	Y19	Z19	X20	Y20	Z20	X21	Y21	Z21	X22	Y22	Z22	X23	Y23	Z23	X24	Y24	Z24	X25	Y25	Z25	X26	Y26	Z26	X27	Y27	Z27	X28	Y28	Z28	X29	Y29	Z29	X30	Y30	Z30	X31	Y31	Z31	X32	Y32	Z32	X33	Y33	Z33	X34	Y34	Z34	X35	Y35	Z35	X36	Y36	Z36	X37	Y37	Z37	X38	Y38	Z38	X39	Y39	Z39	X40	Y40	Z40	X41	Y41	Z41	X42	Y42	Z42	X43	Y43	Z43	X44	Y44	Z44	X45	Y45	Z45	X46	Y46	Z46	X47	Y47	Z47	X48	Y48	Z48	X49	Y49	Z49	X50	Y50	Z50	X51	Y51	Z51	

232	2.310	-1227.58765	806.94073	1596.16260	-1101.57043	762.12225	1594.35229	-1268.01257	684.26611	1554.81885	-1142.92358	645.02985	1552.74915	-1216.99072	631.90411	1394.73279	-1216.47485	590.76624	1081.12952	-1197.21533	753.09766	1317.63208	-1203.98389	793.11548	1151.55701	-1132.78638	562.54858	1217.89661	-1355.56079	729.90942	1359.80139	-1440.18054	772.76459	1180.44519	-1457.84399	824.45746	1071.03259	-1443.17639	912.80670	978.74902	-1398.00610	987.72473	894.43060	-1451.07581	976.25372	884.57574	-1432.82239	1038.85278	833.44257	-1045.87158	679.14258	1338.57056	-978.66644	648.11981	1117.15125	-964.81793	650.55145	1003.86493	-962.57440	652.49725	866.73615	-994.34351	678.18219	768.83484	-956.01996	639.99915	767.20313	-963.59503	655.60834	693.94751	-1329.43945	758.14288	918.74536	-1090.97388	755.55206	914.26263	-1278.03784	595.73016	940.58008	-1129.25439	594.39685	939.00348	-1367.96948	659.09052	625.26910	-1333.45874	620.45740	449.34558	-1338.53650	512.56000	280.85403	-1300.57739	424.55188	87.81966	-1266.45667	373.95193	63.27671	-1273.15967	564.24109	28.13117	-1049.58313	753.92651	618.64600	-1089.63452	834.57043	457.60364	-1088.04480	858.32660	275.00299	-1131.66907	925.59772	67.37342	-1190.79456	899.25604	30.56887	-1134.15588	1072.77881	58.63039	-1203.48071	712.13745	1656.37952																																	 
233	2.320	-1225.85010	817.43463	1596.05005	-1099.95593	772.35291	1594.19580	-1266.61963	694.88763	1554.65405	-1141.60876	655.44775	1552.61255	-1215.23230	642.46509	1394.40234	-1215.16138	601.83386	1080.75073	-1195.80859	763.78625	1317.42578	-1202.83264	804.16937	1151.43896	-1131.02649	573.55487	1217.36548	-1354.10339	739.94452	1359.54773	-1438.88281	781.81580	1179.94299	-1456.31323	832.90289	1070.21790	-1441.58948	921.92377	978.92767	-1396.05444	997.71130	895.74738	-1448.98511	986.16437	885.25421	-1430.50989	1049.34644	835.08179	-1044.24609	690.03644	1338.06104	-977.64923	658.65668	1116.65405	-964.01355	660.44086	1003.35602	-962.16937	661.48975	866.14972	-993.85199	686.90100	768.09149	-955.71521	648.34900	766.68567	-963.69739	663.42456	693.28107	-1328.45483	768.87299	918.26508	-1089.83936	766.74261	914.23987	-1276.49768	606.60187	940.23914	-1127.79028	605.44928	939.24902	-1367.19067	668.77814	625.04199	-1333.42603	629.20752	449.13989	-1338.64624	518.24646	282.29730	-1300.93799	426.42740	91.13280	-1266.85034	375.34970	67.64676	-1273.13965	564.56134	28.08018	-1048.94238	764.93176	618.99500	-1089.22266	844.62604	457.25314	-1087.81189	865.93970	273.88419	-1132.06445	930.02625	65.54170	-1190.82178	901.88068	29.76303	-1136.42322	1076.72302	54.43023	-1202.00061	722.62646	1656.23987																																	 
234	2.330	-1224.40222	828.12714	1596.21021	-1098.32751	782.68561	1594.28052	-1265.18188	705.54767	1554.72607	-1140.22498	665.84119	1552.61255	-1213.35852	653.07935	1394.30920	-1213.75024	613.06146	1080.57117	-1194.27917	774.51544	1317.37158	-1201.59277	815.39520	1151.56348	-1129.30896	584.67340	1216.91589	-1352.64819	750.03876	1359.63904	-1437.47717	790.76526	1179.56860	-1455.11328	841.29901	1069.73145	-1440.03406	930.61505	978.96814	-1394.10095	1007.12238	896.73022	-1446.84705	995.38794	885.61603	-1428.23499	1059.18811	836.37427	-1042.60303	701.13062	1337.91675	-976.56183	669.50763	1116.33118	-963.24078	670.76886	1002.99615	-961.63544	670.91040	865.71405	-994.38177	694.68121	767.40137	-955.43341	657.06219	766.35797	-963.64893	671.50507	692.78345	-1327.13684	779.82355	917.74451	-1088.55408	778.12311	914.45697	-1275.16235	617.70117	940.06580	-1126.32922	616.63660	939.69922	-1366.38245	678.92114	624.71881	-1333.33948	638.61157	449.00851	-1338.76733	524.40240	283.81305	-1301.38293	428.68167	94.73141	-1267.35156	377.19785	72.41376	-1273.24585	564.62976	27.81351	-1048.35205	776.18744	619.77814	-1088.84631	854.37421	457.08432	-1087.92517	872.80481	272.90353	-1133.01758	933.12628	63.88066	-1192.28748	903.05194	29.82254	-1138.77747	1079.02026	46.24090	-1200.40137	733.12006	1656.27454																																	 
235	2.340	-1222.41614	838.62286	1596.67285	-1096.65027	793.11548	1594.75134	-1263.64575	716.22845	1555.07080	-1138.78149	676.27612	1552.94202	-1211.41174	663.67450	1394.51538	-1212.42554	624.40704	1080.70996	-1192.74658	785.33435	1317.64490	-1200.33716	826.75977	1152.10828	-1127.50061	595.84467	1216.69763	-1351.09546	760.14276	1359.85767	-1436.13635	799.71051	1179.33069	-1453.76086	849.33514	1069.26782	-1438.46143	938.99146	978.93829	-1392.13940	1016.00403	897.45911	-1444.71765	1004.10431	885.81537	-1426.02271	1068.34192	837.26642	-1040.79126	712.32263	1337.96326	-975.32233	680.62134	1116.13660	-962.47974	681.44952	1002.73468	-961.13721	680.66443	865.52283	-994.08429	703.81982	767.03351	-955.12244	666.16943	766.12518	-963.70343	679.95740	692.46741	-1325.95898	791.27026	917.53204	-1087.16028	789.58392	914.91583	-1273.80505	628.88373	940.14545	-1125.04382	627.88757	940.38641	-1365.30750	689.58789	624.42310	-1333.20166	648.59277	448.66452	-1338.78992	531.16901	285.52649	-1301.87756	431.46997	98.74635	-1267.82251	379.43835	77.95560	-1273.28333	564.83881	27.67500	-1047.92432	787.63849	621.36438	-1088.49280	863.35175	457.34067	-1088.41504	879.26953	272.47672	-1133.39612	936.19684	63.30293	-1191.66650	904.09058	30.59644	-1141.48511	1081.59106	39.43198	-1198.87366	743.66034	1656.67358																																	 
236	2.350	-1220.67554	849.30688	1597.68567	-1094.96802	803.61884	1595.72205	-1262.02161	726.99579	1555.84204	-1137.18408	686.90460	1553.67175	-1209.28638	674.22308	1395.15259	-1211.04529	635.75702	1081.35254	-1191.19739	796.09265	1318.37451	-1198.91980	838.01556	1153.06714	-1125.72986	606.93604	1216.91675	-1349.56458	770.28156	1360.47107	-1434.46509	808.29584	1179.29211	-1452.24902	857.19440	1068.84570	-1436.76538	946.97150	978.79596	-1390.15503	1024.27551	897.83990	-1442.64880	1012.34833	885.86865	-1423.77307	1076.75916	837.74408	-1038.85510	723.64392	1338.25989	-974.01721	691.99060	1116.17688	-961.54828	692.38232	1002.71387	-960.57660	690.87524	865.44635	-993.79279	713.27216	766.79993	-954.71069	675.71704	766.12256	-963.69867	688.79230	692.33398	-1324.55688	802.89941	917.48700	-1085.63623	801.16571	915.81238	-1272.74329	640.31616	940.35321	-1123.84082	639.21460	941.39038	-1364.50476	700.84796	624.30951	-1333.01123	659.03510	447.79990	-1338.82776	538.59747	287.50436	-1302.25793	434.52417	103.37257	-1268.20947	382.22382	84.20451	-1273.22412	565.43292	27.67436	-1047.40503	799.00372	623.57758	-1087.92383	871.44562	458.07715	-1088.13452	885.97278	272.83533	-1133.64111	940.60773	63.44830	-1191.11023	906.26257	32.00822	-1142.21753	1085.49475	37.68015	-1197.27637	754.18683	1657.51770																																	 
